<?xml version="1.0" standalone="no"?>
<!DOCTYPE svg PUBLIC "-//W3C//DTD SVG 20010904//EN"
 "http://www.w3.org/TR/2001/REC-SVG-20010904/DTD/svg10.dtd">
<svg version="1.0" xmlns="http://www.w3.org/2000/svg"
 width="768.000000pt" height="768.000000pt" viewBox="0 0 768.000000 768.000000"
 preserveAspectRatio="xMidYMid meet">
<metadata>
Created by potrace 1.11, written by Peter Selinger 2001-2013
</metadata>
<g transform="translate(0.000000,768.000000) scale(0.100000,-0.100000)"
fill="#000000" stroke="none">
<path d="M3630 7664 c-104 -21 -107 -23 -139 -50 -33 -28 -55 -87 -67 -184 -4
-30 -8 -284 -9 -565 -1 -380 -5 -524 -14 -565 -31 -130 -138 -272 -254 -339
-112 -64 -168 -76 -401 -86 -65 -3 -128 -7 -140 -10 -11 -2 -39 -7 -61 -10
-195 -27 -435 -103 -619 -196 -269 -137 -523 -345 -696 -569 -19 -25 -37 -47
-40 -50 -25 -21 -144 -220 -200 -335 -110 -227 -169 -426 -197 -665 -10 -79
-10 -444 0 -520 20 -163 84 -421 127 -515 5 -11 23 -53 40 -93 129 -303 355
-583 656 -814 109 -83 128 -117 138 -241 3 -37 7 -70 9 -75 3 -4 8 -30 11 -57
5 -52 57 -258 79 -315 3 -8 17 -47 32 -87 54 -147 215 -433 292 -518 10 -11
36 -43 58 -70 22 -28 76 -86 120 -130 274 -273 612 -462 990 -554 161 -39 261
-49 485 -49 253 0 315 7 520 58 588 146 1089 554 1355 1104 54 112 107 242
121 296 2 8 12 49 24 90 24 89 47 213 55 302 14 134 33 167 144 250 262 195
495 471 640 757 50 99 130 310 146 386 2 11 13 62 24 113 30 136 36 207 36
412 0 270 -22 413 -100 648 -179 536 -556 970 -1060 1217 -196 96 -363 152
-570 190 -48 9 -139 7 -166 -4 -60 -22 -120 -135 -174 -321 -55 -191 -67 -358
-30 -401 29 -32 185 -103 311 -143 135 -42 197 -66 282 -112 336 -181 580
-525 636 -894 13 -81 14 -326 2 -380 -11 -47 -16 -75 -21 -99 -9 -47 -48 -157
-78 -221 -102 -214 -243 -359 -587 -605 -110 -78 -227 -257 -254 -387 -3 -13
-8 -34 -11 -48 -3 -14 -8 -72 -10 -130 -8 -195 -22 -274 -76 -422 -65 -178
-181 -357 -309 -476 -55 -51 -172 -138 -226 -167 -27 -15 -53 -31 -59 -35 -23
-17 -196 -80 -260 -96 -130 -30 -173 -35 -305 -35 -125 0 -247 18 -355 52 -39
13 -76 24 -83 25 -30 6 -204 101 -273 149 -240 170 -421 443 -485 730 -17 79
-26 153 -30 235 -3 86 -7 120 -21 199 -31 174 -162 356 -331 456 -124 74 -208
142 -279 224 -195 227 -284 413 -338 706 -8 39 -7 239 0 290 16 114 46 223 81
302 8 17 14 35 14 40 0 5 23 49 51 98 224 391 598 621 1039 640 123 6 252 15
260 20 3 2 23 6 45 9 172 27 402 127 559 245 324 243 517 577 572 991 4 30 8
287 8 570 2 758 -4 787 -185 829 -94 22 -354 25 -449 5z"/>
</g>
</svg>
