<?xml version="1.0" standalone="no"?>
<!DOCTYPE svg PUBLIC "-//W3C//DTD SVG 20010904//EN"
 "http://www.w3.org/TR/2001/REC-SVG-20010904/DTD/svg10.dtd">
<svg version="1.0" xmlns="http://www.w3.org/2000/svg"
 width="512.000000pt" height="512.000000pt" viewBox="0 0 512.000000 512.000000"
 preserveAspectRatio="xMidYMid meet">
<metadata>
Created by potrace 1.11, written by Peter Selinger 2001-2013
</metadata>
<g transform="translate(0.000000,512.000000) scale(0.100000,-0.100000)"
fill="#000000" stroke="none">
<path d="M2380 5110 c-91 -16 -106 -18 -150 -29 -219 -51 -462 -185 -633 -349
-124 -120 -247 -299 -312 -456 -57 -140 -81 -232 -109 -426 -9 -66 -18 -79
-90 -133 -181 -137 -329 -314 -426 -512 -98 -201 -137 -367 -138 -589 -1 -235
40 -412 143 -621 182 -367 500 -626 902 -736 87 -23 207 -33 234 -18 27 14 84
141 109 238 23 93 33 195 20 226 -11 29 -86 67 -215 110 -172 57 -261 107
-361 202 -234 220 -318 550 -218 849 59 174 151 289 354 437 192 141 244 235
256 462 14 272 145 503 373 656 73 48 214 106 286 116 112 16 147 18 223 11
353 -30 633 -265 726 -608 17 -62 25 -121 31 -230 10 -176 88 -301 250 -401
238 -148 398 -433 396 -707 -3 -295 -169 -571 -431 -715 -123 -67 -228 -93
-420 -102 -341 -16 -627 -195 -792 -495 -37 -69 -66 -146 -89 -245 -21 -84
-22 -116 -23 -460 0 -364 4 -458 23 -507 22 -57 103 -79 286 -74 155 4 209 20
231 71 20 50 26 153 29 508 2 361 2 362 62 454 39 59 82 94 157 129 52 24 79
28 246 39 207 14 375 62 559 161 130 70 205 127 322 244 265 264 402 590 403
960 1 182 -8 262 -40 386 -78 300 -240 546 -492 747 -40 32 -80 69 -89 83 -9
14 -22 70 -29 127 -30 233 -118 450 -262 647 -116 158 -319 329 -497 418 -74
37 -254 99 -326 112 -30 6 -65 13 -79 16 -39 9 -349 12 -400 4z"/>
</g>
</svg>
