<svg xmlns="http://www.w3.org/2000/svg" viewBox="0 0 175.2 44.73"><defs><style>.a{fill:purple;}</style></defs><title>logo-craigslist</title><path class="a" d="M18.47,25.77A11.85,11.85,0,0,1,15,32.45a8.33,8.33,0,0,1-5.72,2.34,8.42,8.42,0,0,1-6.5-3.14A12.39,12.39,0,0,1,0,23.16a11.74,11.74,0,0,1,3.07-8.43,9.84,9.84,0,0,1,7.39-3.24,8.1,8.1,0,0,1,5.31,1.72,4.73,4.73,0,0,1,2.08,3.56,2,2,0,0,1-.59,1.48,2.28,2.28,0,0,1-1.64.56,2.51,2.51,0,0,1-2.12-.91A3.66,3.66,0,0,1,13,16a3.17,3.17,0,0,0-1-2.16,3.45,3.45,0,0,0-2.32-.72,4.74,4.74,0,0,0-3.86,1.78,9.45,9.45,0,0,0-1.93,6.21A12.64,12.64,0,0,0,5.8,28a5.92,5.92,0,0,0,5.21,3,6.31,6.31,0,0,0,4.21-1.61,10.78,10.78,0,0,0,2.56-4ZM28,11.49v5q2.74-5,5.64-5a3,3,0,0,1,2.18.81,2.47,2.47,0,0,1,.86,1.86,2.21,2.21,0,0,1-.62,1.58,2,2,0,0,1-1.48.65,3.16,3.16,0,0,1-1.88-.83,3.14,3.14,0,0,0-1.55-.83,1.44,1.44,0,0,0-.93.48A11.51,11.51,0,0,0,28,18.45V29a6.64,6.64,0,0,0,.45,2.76,2.5,2.5,0,0,0,1.1,1.08,5,5,0,0,0,2.27.43v.86H20.6v-.86a4.66,4.66,0,0,0,2.49-.53,2.05,2.05,0,0,0,.84-1.22,12.43,12.43,0,0,0,.12-2.33V20.66a33.88,33.88,0,0,0-.16-4.57A1.78,1.78,0,0,0,23.32,15a1.64,1.64,0,0,0-1-.33,4.71,4.71,0,0,0-1.68.36l-.24-.87L27,11.49ZM50.37,31a34.92,34.92,0,0,1-4.24,3,6.45,6.45,0,0,1-2.75.6A4.92,4.92,0,0,1,39.64,33a5.75,5.75,0,0,1-1.47-4.11,5.2,5.2,0,0,1,.71-2.78,9.54,9.54,0,0,1,3.41-3.07,52.34,52.34,0,0,1,8.08-3.5v-.87c0-2.19-.35-3.69-1-4.51a3.79,3.79,0,0,0-3-1.22,3.41,3.41,0,0,0-2.39.81A2.46,2.46,0,0,0,43,15.65l0,1.39a2.38,2.38,0,0,1-.57,1.7,2.05,2.05,0,0,1-2.92,0A2.5,2.5,0,0,1,39,17a4.9,4.9,0,0,1,2.11-3.79A9.07,9.07,0,0,1,47,11.49a10.15,10.15,0,0,1,4.78,1,4.48,4.48,0,0,1,2.09,2.33A13.3,13.3,0,0,1,54.32,19v7.46a34.06,34.06,0,0,0,.12,3.85,1.66,1.66,0,0,0,.39.95.94.94,0,0,0,.64.24,1.36,1.36,0,0,0,.67-.17,15,15,0,0,0,1.93-1.75V31q-2.67,3.6-5.12,3.6a2.32,2.32,0,0,1-1.86-.81A4.35,4.35,0,0,1,50.37,31Zm0-1.56V21a47,47,0,0,0-4.67,2A8,8,0,0,0,43,25.27a4.28,4.28,0,0,0-.81,2.52,4.12,4.12,0,0,0,1,2.86,3.13,3.13,0,0,0,2.37,1.14c1.22,0,2.81-.8,4.79-2.4ZM65.25,0A2.33,2.33,0,0,1,67,.71a2.33,2.33,0,0,1,.71,1.71A2.38,2.38,0,0,1,67,4.15a2.3,2.3,0,0,1-1.71.72,2.34,2.34,0,0,1-1.72-.72,2.35,2.35,0,0,1-.72-1.73A2.33,2.33,0,0,1,63.52.71,2.36,2.36,0,0,1,65.25,0Zm2,11.49V29.15a8.07,8.07,0,0,0,.3,2.75,2.07,2.07,0,0,0,.88,1,4.64,4.64,0,0,0,2.14.34v.86H59.92v-.86A5.1,5.1,0,0,0,62.07,33a2.12,2.12,0,0,0,.87-1,7.63,7.63,0,0,0,.33-2.76V20.68a30.37,30.37,0,0,0-.22-4.63A1.85,1.85,0,0,0,62.52,15a1.47,1.47,0,0,0-1-.3,4.74,4.74,0,0,0-1.62.36l-.34-.87,6.6-2.69ZM79.13,26.11A7.27,7.27,0,0,1,76,23.36a7.65,7.65,0,0,1,1.38-9.51,8.69,8.69,0,0,1,6.28-2.36A9.57,9.57,0,0,1,89.13,13h4.64a6.09,6.09,0,0,1,1.2.06.44.44,0,0,1,.24.2,1.46,1.46,0,0,1,.14.77,2.16,2.16,0,0,1-.12.87.46.46,0,0,1-.25.19,5.21,5.21,0,0,1-1.21.07H90.93a7,7,0,0,1,1.34,4.41,7,7,0,0,1-2.35,5.26A8.84,8.84,0,0,1,83.63,27a12.19,12.19,0,0,1-3.33-.48,6.35,6.35,0,0,0-1.42,1.6,2.49,2.49,0,0,0-.37,1.16,1.11,1.11,0,0,0,.39.79,3,3,0,0,0,1.55.56c.44.06,1.56.12,3.35.16,3.28.08,5.41.2,6.38.34a6,6,0,0,1,3.56,1.66,4.54,4.54,0,0,1,1.33,3.31,7,7,0,0,1-2.54,5.08,13.65,13.65,0,0,1-9.74,3.51A13.92,13.92,0,0,1,75,42.64c-1.2-.8-1.79-1.63-1.79-2.5A2.7,2.7,0,0,1,73.46,39a13.77,13.77,0,0,1,1.67-2.47c.12-.14.93-1,2.44-2.59a7.79,7.79,0,0,1-1.75-1.33,1.94,1.94,0,0,1-.52-1.33,4,4,0,0,1,.68-2,15.92,15.92,0,0,1,3.15-3.19Zm4.16-13.46a3.72,3.72,0,0,0-3,1.41,6.61,6.61,0,0,0-1.2,4.34,9.33,9.33,0,0,0,1.63,5.88,3.84,3.84,0,0,0,3.16,1.59,3.79,3.79,0,0,0,3-1.37,6.52,6.52,0,0,0,1.17-4.3,9.63,9.63,0,0,0-1.65-6,3.79,3.79,0,0,0-3.14-1.58Zm-4.4,21.47a12,12,0,0,0-1.7,2.28,4.16,4.16,0,0,0-.57,1.94,2.43,2.43,0,0,0,1.39,2,13.18,13.18,0,0,0,6.91,1.49q4.31,0,6.35-1.53a4.17,4.17,0,0,0,2-3.25A1.82,1.82,0,0,0,92.1,35.3a16.13,16.13,0,0,0-4.93-.63,77.56,77.56,0,0,1-8.28-.55Zm33.05-22.63V19h-.79q-.91-3.53-2.34-4.8a5.21,5.21,0,0,0-3.62-1.27,4,4,0,0,0-2.71.89,2.6,2.6,0,0,0-1,2,3.59,3.59,0,0,0,.77,2.3,8.59,8.59,0,0,0,3,2.09l3.49,1.7q4.86,2.37,4.86,6.26A5.94,5.94,0,0,1,111.32,33a7.82,7.82,0,0,1-5.06,1.83,17.31,17.31,0,0,1-4.59-.72,4.7,4.7,0,0,0-1.29-.24.94.94,0,0,0-.86.63h-.79V26.61h.79a8.87,8.87,0,0,0,2.56,5.06,6.15,6.15,0,0,0,4.23,1.71,3.81,3.81,0,0,0,2.69-1,3.07,3.07,0,0,0,1-2.34,3.71,3.71,0,0,0-1.16-2.79,20,20,0,0,0-4.63-2.85,13.67,13.67,0,0,1-4.54-3.12,5.42,5.42,0,0,1-1.08-3.46,6.09,6.09,0,0,1,1.86-4.53,6.51,6.51,0,0,1,4.79-1.83,11.27,11.27,0,0,1,3.14.56,7.32,7.32,0,0,0,1.62.36,1,1,0,0,0,.6-.17,2.28,2.28,0,0,0,.51-.75ZM124.35,0V29.15a8,8,0,0,0,.3,2.74,2.13,2.13,0,0,0,.92,1,5.34,5.34,0,0,0,2.33.35v.86H117.15v-.86a4.76,4.76,0,0,0,2.06-.31,2.1,2.1,0,0,0,.86-1,8,8,0,0,0,.31-2.76v-20a33,33,0,0,0-.17-4.57,2,2,0,0,0-.53-1.16,1.44,1.44,0,0,0-1-.32,4.44,4.44,0,0,0-1.58.39l-.41-.84L123.28,0ZM136,0a2.33,2.33,0,0,1,1.71.71,2.33,2.33,0,0,1,.71,1.71,2.38,2.38,0,0,1-.71,1.73,2.3,2.3,0,0,1-1.71.72,2.34,2.34,0,0,1-1.72-.72,2.35,2.35,0,0,1-.72-1.73,2.33,2.33,0,0,1,.71-1.71A2.36,2.36,0,0,1,136,0Zm2,11.49V29.15a8.07,8.07,0,0,0,.3,2.75,2.07,2.07,0,0,0,.88,1,4.64,4.64,0,0,0,2.14.34v.86H130.65v-.86A5.06,5.06,0,0,0,132.8,33a2.12,2.12,0,0,0,.87-1,7.63,7.63,0,0,0,.33-2.76V20.68a30.37,30.37,0,0,0-.22-4.63,1.85,1.85,0,0,0-.53-1.06,1.45,1.45,0,0,0-1-.3,4.74,4.74,0,0,0-1.62.36l-.34-.87,6.61-2.69Zm20.19,0V19h-.79q-.9-3.53-2.33-4.8a5.23,5.23,0,0,0-3.62-1.27,4,4,0,0,0-2.71.89,2.6,2.6,0,0,0-1,2,3.59,3.59,0,0,0,.77,2.3,8.62,8.62,0,0,0,3,2.09l3.5,1.7q4.86,2.37,4.86,6.26A5.94,5.94,0,0,1,157.55,33a7.82,7.82,0,0,1-5.06,1.83,17.31,17.31,0,0,1-4.59-.72,4.7,4.7,0,0,0-1.29-.24.94.94,0,0,0-.86.63H145V26.61h.79a8.87,8.87,0,0,0,2.56,5.06,6.15,6.15,0,0,0,4.23,1.71,3.81,3.81,0,0,0,2.69-1,3.07,3.07,0,0,0,1-2.34,3.71,3.71,0,0,0-1.16-2.79,20,20,0,0,0-4.63-2.85,13.56,13.56,0,0,1-4.54-3.12,5.42,5.42,0,0,1-1.08-3.46,6.12,6.12,0,0,1,1.85-4.53,6.55,6.55,0,0,1,4.8-1.83,11.27,11.27,0,0,1,3.14.56,7.32,7.32,0,0,0,1.62.36,1,1,0,0,0,.6-.17,2.14,2.14,0,0,0,.5-.75Zm11.25-6.57v7.22h5.12v1.68h-5.12V28.07A4.75,4.75,0,0,0,170,31a1.94,1.94,0,0,0,1.57.75,2.82,2.82,0,0,0,1.53-.49,3.22,3.22,0,0,0,1.15-1.46h.93a7.53,7.53,0,0,1-2.37,3.54,5,5,0,0,1-3.16,1.19,4.21,4.21,0,0,1-2.15-.61A3.75,3.75,0,0,1,166,32.12a9.34,9.34,0,0,1-.5-3.52V13.82H162V13a8.93,8.93,0,0,0,2.69-1.79,14,14,0,0,0,2.46-3,28.69,28.69,0,0,0,1.53-3.33Z"/></svg>