<svg xmlns="http://www.w3.org/2000/svg" viewBox="0 0 611.99 768.48"><defs><style>.a{fill:#2ed03c;}</style></defs><title>logo</title><path class="a" d="M87.43,560.78c6.28,4.84,9.66,11.11,9.66,17.39A208.72,208.72,0,0,0,305.27,768.48c109.17,0,198-83.08,207.7-190.31a20.54,20.54,0,0,1,9.66-17.39c54.1-38.64,89.36-99,89.36-169.53,0-96.13-65.69-177.27-155-201.42-15.94-4.83-30.43-6.28-36.71-3.38-11.11,6.27-25.6,58.92-19.32,70.52,3.38,4.83,17.39,11.11,33.81,15.94C487.37,287.4,526,335.22,526,391.25c0,31.87-11.11,60.86-31.88,81.63-9.66,9.66-19.32,17.38-30.43,25.6-22.22,12.55-35.26,36.7-35.26,62.3,0,12.56-1.45,25.6-6.28,38.16-15.94,49.75-62.31,84.53-116.89,84.53a122.58,122.58,0,0,1-116.89-84.53c-3.38-11.11-6.28-24.15-6.28-38.16,0-25.6-12.56-49.75-35.26-62.3-11.11-6.28-22.22-14.5-30.43-25.6-19.32-22.22-31.88-51.2-31.88-81.63,0-67.14,56-123.17,123.17-123.17,78.25,0,140.56-63.76,140.56-142.5V44c0-15.93-1.45-31.87-6.28-36.7-9.66-9.67-62.31-9.67-72,0-4.83,4.83-6.28,20.77-6.28,36.7v81.63c0,30.44-25.6,54.59-56,54.59C92.74,180.17,0,274.35,0,387.86c-.49,73.91,33.32,134.28,87.42,172.92"/></svg>