<?xml version="1.0" encoding="utf-8"?>
<svg version="1.1" id="logo-ebay" xmlns="http://www.w3.org/2000/svg" xmlns:xlink="http://www.w3.org/1999/xlink" x="0px" y="0px"
	 viewBox="0 0 398 120.3" style="enable-background:new 0 0 398 120.3;" xml:space="preserve">
<style type="text/css">
	.st0{fill:#E53238;}
	.st1{fill:#0064D2;}
	.st2{fill:#F5AF02;}
	.st3{fill:#86B817;}
</style>
<path id="e" class="st0" d="M87.9,26.3c-21.1,0-38.8,9-38.8,36c0,21.4,11.8,34.9,39.3,34.9c32.3,0,34.4-21.3,34.4-21.3h-15.7
	c0,0-3.4,11.5-19.7,11.5c-13.3,0-22.9-9-22.9-21.6h59.9V58C124.4,45.5,116.5,26.3,87.9,26.3L87.9,26.3z M87.3,36.4
	c12.7,0,21.3,7.8,21.3,19.4H64.9C64.9,43.5,76.2,36.4,87.3,36.4z"/>
<path id="b" class="st1" d="M124.4,0.1v83.6c0,4.7-0.3,11.4-0.3,11.4H139c0,0,0.5-4.8,0.5-9.2c0,0,7.4,11.5,27.5,11.5
	c21.1,0,35.5-14.7,35.5-35.7c0-19.6-13.2-35.3-35.5-35.3c-20.9,0-27.3,11.3-27.3,11.3V0.1L124.4,0.1z M163.2,36.9
	c14.4,0,23.5,10.7,23.5,24.9c0,15.3-10.5,25.4-23.4,25.4c-15.3,0-23.6-12-23.6-25.2C139.7,49.6,147.1,36.9,163.2,36.9z"/>
<path id="a" class="st2" d="M239.6,26.3c-31.8,0-33.9,17.4-33.9,20.2h15.8c0,0,0.8-10.2,16.9-10.2c10.5,0,18.6,4.8,18.6,14v3.3
	h-18.6c-24.6,0-37.7,7.2-37.7,21.8c0,14.4,12,22.2,28.3,22.2c22.2,0,29.3-12.3,29.3-12.3c0,4.9,0.4,9.7,0.4,9.7H273
	c0,0-0.5-6-0.5-9.8V52.4C272.4,30.9,255,26.3,239.6,26.3L239.6,26.3z M257.1,63.4v4.4c0,5.7-3.5,19.9-24.2,19.9
	c-11.3,0-16.2-5.7-16.2-12.2C216.7,63.5,233.1,63.4,257.1,63.4L257.1,63.4z"/>
<path id="y" class="st3" d="M263.9,29h17.8l25.6,51.2L332.8,29h16.1l-46.5,91.2h-16.9l13.4-25.4L263.9,29z"/>
</svg>
